<mxfile host="65bd71144e">
    <diagram id="7zRXRXNeqJw6ANFvSdfZ" name="Page-1">
        <mxGraphModel dx="1360" dy="765" grid="0" gridSize="10" guides="1" tooltips="1" connect="1" arrows="1" fold="1" page="0" pageScale="1" pageWidth="1169" pageHeight="827" math="0" shadow="0">
            <root>
                <mxCell id="0"/>
                <mxCell id="1" parent="0"/>
                <mxCell id="98" value="" style="rounded=0;whiteSpace=wrap;html=1;" vertex="1" parent="1">
                    <mxGeometry x="659" y="644" width="202" height="242" as="geometry"/>
                </mxCell>
                <mxCell id="3" value="" style="shape=table;html=1;whiteSpace=wrap;startSize=0;container=1;collapsible=0;childLayout=tableLayout;" parent="1" vertex="1">
                    <mxGeometry x="245" y="250" width="130" height="53" as="geometry"/>
                </mxCell>
                <mxCell id="4" value="" style="shape=tableRow;horizontal=0;startSize=0;swimlaneHead=0;swimlaneBody=0;top=0;left=0;bottom=0;right=0;collapsible=0;dropTarget=0;fillColor=none;points=[[0,0.5],[1,0.5]];portConstraint=eastwest;" parent="3" vertex="1">
                    <mxGeometry width="130" height="27" as="geometry"/>
                </mxCell>
                <mxCell id="5" value="6" style="shape=partialRectangle;html=1;whiteSpace=wrap;connectable=0;fillColor=none;top=0;left=0;bottom=0;right=0;overflow=hidden;" parent="4" vertex="1">
                    <mxGeometry width="43" height="27" as="geometry">
                        <mxRectangle width="43" height="27" as="alternateBounds"/>
                    </mxGeometry>
                </mxCell>
                <mxCell id="6" value="7" style="shape=partialRectangle;html=1;whiteSpace=wrap;connectable=0;fillColor=none;top=0;left=0;bottom=0;right=0;overflow=hidden;" parent="4" vertex="1">
                    <mxGeometry x="43" width="44" height="27" as="geometry">
                        <mxRectangle width="44" height="27" as="alternateBounds"/>
                    </mxGeometry>
                </mxCell>
                <mxCell id="7" value="8" style="shape=partialRectangle;html=1;whiteSpace=wrap;connectable=0;fillColor=none;top=0;left=0;bottom=0;right=0;overflow=hidden;" parent="4" vertex="1">
                    <mxGeometry x="87" width="43" height="27" as="geometry">
                        <mxRectangle width="43" height="27" as="alternateBounds"/>
                    </mxGeometry>
                </mxCell>
                <mxCell id="8" value="" style="shape=tableRow;horizontal=0;startSize=0;swimlaneHead=0;swimlaneBody=0;top=0;left=0;bottom=0;right=0;collapsible=0;dropTarget=0;fillColor=none;points=[[0,0.5],[1,0.5]];portConstraint=eastwest;" parent="3" vertex="1">
                    <mxGeometry y="27" width="130" height="26" as="geometry"/>
                </mxCell>
                <mxCell id="9" value="11" style="shape=partialRectangle;html=1;whiteSpace=wrap;connectable=0;fillColor=none;top=0;left=0;bottom=0;right=0;overflow=hidden;" parent="8" vertex="1">
                    <mxGeometry width="43" height="26" as="geometry">
                        <mxRectangle width="43" height="26" as="alternateBounds"/>
                    </mxGeometry>
                </mxCell>
                <mxCell id="10" value="12" style="shape=partialRectangle;html=1;whiteSpace=wrap;connectable=0;fillColor=none;top=0;left=0;bottom=0;right=0;overflow=hidden;" parent="8" vertex="1">
                    <mxGeometry x="43" width="44" height="26" as="geometry">
                        <mxRectangle width="44" height="26" as="alternateBounds"/>
                    </mxGeometry>
                </mxCell>
                <mxCell id="11" value="13" style="shape=partialRectangle;html=1;whiteSpace=wrap;connectable=0;fillColor=none;top=0;left=0;bottom=0;right=0;overflow=hidden;" parent="8" vertex="1">
                    <mxGeometry x="87" width="43" height="26" as="geometry">
                        <mxRectangle width="43" height="26" as="alternateBounds"/>
                    </mxGeometry>
                </mxCell>
                <mxCell id="16" value="" style="shape=table;html=1;whiteSpace=wrap;startSize=0;container=1;collapsible=0;childLayout=tableLayout;" parent="1" vertex="1">
                    <mxGeometry x="445" y="250" width="87" height="53" as="geometry"/>
                </mxCell>
                <mxCell id="17" value="" style="shape=tableRow;horizontal=0;startSize=0;swimlaneHead=0;swimlaneBody=0;top=0;left=0;bottom=0;right=0;collapsible=0;dropTarget=0;fillColor=none;points=[[0,0.5],[1,0.5]];portConstraint=eastwest;" parent="16" vertex="1">
                    <mxGeometry width="87" height="27" as="geometry"/>
                </mxCell>
                <mxCell id="18" value="9" style="shape=partialRectangle;html=1;whiteSpace=wrap;connectable=0;fillColor=none;top=0;left=0;bottom=0;right=0;overflow=hidden;" parent="17" vertex="1">
                    <mxGeometry width="43" height="27" as="geometry">
                        <mxRectangle width="43" height="27" as="alternateBounds"/>
                    </mxGeometry>
                </mxCell>
                <mxCell id="19" value="10" style="shape=partialRectangle;html=1;whiteSpace=wrap;connectable=0;fillColor=none;top=0;left=0;bottom=0;right=0;overflow=hidden;" parent="17" vertex="1">
                    <mxGeometry x="43" width="44" height="27" as="geometry">
                        <mxRectangle width="44" height="27" as="alternateBounds"/>
                    </mxGeometry>
                </mxCell>
                <mxCell id="21" value="" style="shape=tableRow;horizontal=0;startSize=0;swimlaneHead=0;swimlaneBody=0;top=0;left=0;bottom=0;right=0;collapsible=0;dropTarget=0;fillColor=none;points=[[0,0.5],[1,0.5]];portConstraint=eastwest;" parent="16" vertex="1">
                    <mxGeometry y="27" width="87" height="26" as="geometry"/>
                </mxCell>
                <mxCell id="22" value="14" style="shape=partialRectangle;html=1;whiteSpace=wrap;connectable=0;fillColor=none;top=0;left=0;bottom=0;right=0;overflow=hidden;" parent="21" vertex="1">
                    <mxGeometry width="43" height="26" as="geometry">
                        <mxRectangle width="43" height="26" as="alternateBounds"/>
                    </mxGeometry>
                </mxCell>
                <mxCell id="23" value="15" style="shape=partialRectangle;html=1;whiteSpace=wrap;connectable=0;fillColor=none;top=0;left=0;bottom=0;right=0;overflow=hidden;" parent="21" vertex="1">
                    <mxGeometry x="43" width="44" height="26" as="geometry">
                        <mxRectangle width="44" height="26" as="alternateBounds"/>
                    </mxGeometry>
                </mxCell>
                <mxCell id="29" value="" style="shape=table;html=1;whiteSpace=wrap;startSize=0;container=1;collapsible=0;childLayout=tableLayout;" parent="1" vertex="1">
                    <mxGeometry x="245" y="190" width="130" height="27" as="geometry"/>
                </mxCell>
                <mxCell id="30" value="" style="shape=tableRow;horizontal=0;startSize=0;swimlaneHead=0;swimlaneBody=0;top=0;left=0;bottom=0;right=0;collapsible=0;dropTarget=0;fillColor=none;points=[[0,0.5],[1,0.5]];portConstraint=eastwest;" parent="29" vertex="1">
                    <mxGeometry width="130" height="27" as="geometry"/>
                </mxCell>
                <mxCell id="31" value="1" style="shape=partialRectangle;html=1;whiteSpace=wrap;connectable=0;fillColor=none;top=0;left=0;bottom=0;right=0;overflow=hidden;" parent="30" vertex="1">
                    <mxGeometry width="43" height="27" as="geometry">
                        <mxRectangle width="43" height="27" as="alternateBounds"/>
                    </mxGeometry>
                </mxCell>
                <mxCell id="32" value="2" style="shape=partialRectangle;html=1;whiteSpace=wrap;connectable=0;fillColor=none;top=0;left=0;bottom=0;right=0;overflow=hidden;" parent="30" vertex="1">
                    <mxGeometry x="43" width="44" height="27" as="geometry">
                        <mxRectangle width="44" height="27" as="alternateBounds"/>
                    </mxGeometry>
                </mxCell>
                <mxCell id="33" value="3" style="shape=partialRectangle;html=1;whiteSpace=wrap;connectable=0;fillColor=none;top=0;left=0;bottom=0;right=0;overflow=hidden;" parent="30" vertex="1">
                    <mxGeometry x="87" width="43" height="27" as="geometry">
                        <mxRectangle width="43" height="27" as="alternateBounds"/>
                    </mxGeometry>
                </mxCell>
                <mxCell id="55" value="" style="shape=table;html=1;whiteSpace=wrap;startSize=0;container=1;collapsible=0;childLayout=tableLayout;" parent="1" vertex="1">
                    <mxGeometry x="445" y="190" width="87" height="27" as="geometry"/>
                </mxCell>
                <mxCell id="56" value="" style="shape=tableRow;horizontal=0;startSize=0;swimlaneHead=0;swimlaneBody=0;top=0;left=0;bottom=0;right=0;collapsible=0;dropTarget=0;fillColor=none;points=[[0,0.5],[1,0.5]];portConstraint=eastwest;" parent="55" vertex="1">
                    <mxGeometry width="87" height="27" as="geometry"/>
                </mxCell>
                <mxCell id="57" value="4" style="shape=partialRectangle;html=1;whiteSpace=wrap;connectable=0;fillColor=none;top=0;left=0;bottom=0;right=0;overflow=hidden;" parent="56" vertex="1">
                    <mxGeometry width="43" height="27" as="geometry">
                        <mxRectangle width="43" height="27" as="alternateBounds"/>
                    </mxGeometry>
                </mxCell>
                <mxCell id="58" value="5" style="shape=partialRectangle;html=1;whiteSpace=wrap;connectable=0;fillColor=none;top=0;left=0;bottom=0;right=0;overflow=hidden;" parent="56" vertex="1">
                    <mxGeometry x="43" width="44" height="27" as="geometry">
                        <mxRectangle width="44" height="27" as="alternateBounds"/>
                    </mxGeometry>
                </mxCell>
                <mxCell id="65" value="窗" style="text;html=1;strokeColor=none;fillColor=none;align=center;verticalAlign=middle;whiteSpace=wrap;rounded=0;" parent="1" vertex="1">
                    <mxGeometry x="175" y="220" width="60" height="30" as="geometry"/>
                </mxCell>
                <mxCell id="66" value="过道" style="text;html=1;strokeColor=none;fillColor=none;align=center;verticalAlign=middle;whiteSpace=wrap;rounded=0;" parent="1" vertex="1">
                    <mxGeometry x="378" y="220" width="60" height="30" as="geometry"/>
                </mxCell>
                <mxCell id="67" value="窗" style="text;html=1;strokeColor=none;fillColor=none;align=center;verticalAlign=middle;whiteSpace=wrap;rounded=0;" parent="1" vertex="1">
                    <mxGeometry x="555" y="220" width="60" height="30" as="geometry"/>
                </mxCell>
                <mxCell id="68" value="" style="shape=table;html=1;whiteSpace=wrap;startSize=0;container=1;collapsible=0;childLayout=tableLayout;" parent="1" vertex="1">
                    <mxGeometry x="245" y="409" width="130" height="27" as="geometry"/>
                </mxCell>
                <mxCell id="69" value="" style="shape=tableRow;horizontal=0;startSize=0;swimlaneHead=0;swimlaneBody=0;top=0;left=0;bottom=0;right=0;collapsible=0;dropTarget=0;fillColor=none;points=[[0,0.5],[1,0.5]];portConstraint=eastwest;" parent="68" vertex="1">
                    <mxGeometry width="130" height="27" as="geometry"/>
                </mxCell>
                <mxCell id="70" value="A" style="shape=partialRectangle;html=1;whiteSpace=wrap;connectable=0;fillColor=none;top=0;left=0;bottom=0;right=0;overflow=hidden;" parent="69" vertex="1">
                    <mxGeometry width="43" height="27" as="geometry">
                        <mxRectangle width="43" height="27" as="alternateBounds"/>
                    </mxGeometry>
                </mxCell>
                <mxCell id="71" value="B" style="shape=partialRectangle;html=1;whiteSpace=wrap;connectable=0;fillColor=none;top=0;left=0;bottom=0;right=0;overflow=hidden;" parent="69" vertex="1">
                    <mxGeometry x="43" width="44" height="27" as="geometry">
                        <mxRectangle width="44" height="27" as="alternateBounds"/>
                    </mxGeometry>
                </mxCell>
                <mxCell id="72" value="C" style="shape=partialRectangle;html=1;whiteSpace=wrap;connectable=0;fillColor=none;top=0;left=0;bottom=0;right=0;overflow=hidden;" parent="69" vertex="1">
                    <mxGeometry x="87" width="43" height="27" as="geometry">
                        <mxRectangle width="43" height="27" as="alternateBounds"/>
                    </mxGeometry>
                </mxCell>
                <mxCell id="73" value="" style="shape=table;html=1;whiteSpace=wrap;startSize=0;container=1;collapsible=0;childLayout=tableLayout;" parent="1" vertex="1">
                    <mxGeometry x="445" y="409" width="87" height="27" as="geometry"/>
                </mxCell>
                <mxCell id="74" value="" style="shape=tableRow;horizontal=0;startSize=0;swimlaneHead=0;swimlaneBody=0;top=0;left=0;bottom=0;right=0;collapsible=0;dropTarget=0;fillColor=none;points=[[0,0.5],[1,0.5]];portConstraint=eastwest;" parent="73" vertex="1">
                    <mxGeometry width="87" height="27" as="geometry"/>
                </mxCell>
                <mxCell id="75" value="D" style="shape=partialRectangle;html=1;whiteSpace=wrap;connectable=0;fillColor=none;top=0;left=0;bottom=0;right=0;overflow=hidden;" parent="74" vertex="1">
                    <mxGeometry width="43" height="27" as="geometry">
                        <mxRectangle width="43" height="27" as="alternateBounds"/>
                    </mxGeometry>
                </mxCell>
                <mxCell id="76" value="E" style="shape=partialRectangle;html=1;whiteSpace=wrap;connectable=0;fillColor=none;top=0;left=0;bottom=0;right=0;overflow=hidden;" parent="74" vertex="1">
                    <mxGeometry x="43" width="44" height="27" as="geometry">
                        <mxRectangle width="44" height="27" as="alternateBounds"/>
                    </mxGeometry>
                </mxCell>
                <mxCell id="77" value="窗" style="text;html=1;strokeColor=none;fillColor=none;align=center;verticalAlign=middle;whiteSpace=wrap;rounded=0;" parent="1" vertex="1">
                    <mxGeometry x="175" y="407.5" width="60" height="30" as="geometry"/>
                </mxCell>
                <mxCell id="78" value="过道" style="text;html=1;strokeColor=none;fillColor=none;align=center;verticalAlign=middle;whiteSpace=wrap;rounded=0;" parent="1" vertex="1">
                    <mxGeometry x="381" y="409" width="60" height="30" as="geometry"/>
                </mxCell>
                <mxCell id="79" value="窗" style="text;html=1;strokeColor=none;fillColor=none;align=center;verticalAlign=middle;whiteSpace=wrap;rounded=0;" parent="1" vertex="1">
                    <mxGeometry x="542" y="407.5" width="60" height="30" as="geometry"/>
                </mxCell>
                <mxCell id="81" value="" style="shape=table;html=1;whiteSpace=wrap;startSize=0;container=1;collapsible=0;childLayout=tableLayout;strokeColor=none;" parent="1" vertex="1">
                    <mxGeometry x="245" y="135" width="130" height="27" as="geometry"/>
                </mxCell>
                <mxCell id="82" value="" style="shape=tableRow;horizontal=0;startSize=0;swimlaneHead=0;swimlaneBody=0;top=0;left=0;bottom=0;right=0;collapsible=0;dropTarget=0;fillColor=none;points=[[0,0.5],[1,0.5]];portConstraint=eastwest;strokeColor=none;" parent="81" vertex="1">
                    <mxGeometry width="130" height="27" as="geometry"/>
                </mxCell>
                <mxCell id="83" value="A" style="shape=partialRectangle;html=1;whiteSpace=wrap;connectable=0;fillColor=none;top=0;left=0;bottom=0;right=0;overflow=hidden;strokeColor=none;" parent="82" vertex="1">
                    <mxGeometry width="43" height="27" as="geometry">
                        <mxRectangle width="43" height="27" as="alternateBounds"/>
                    </mxGeometry>
                </mxCell>
                <mxCell id="84" value="B" style="shape=partialRectangle;html=1;whiteSpace=wrap;connectable=0;fillColor=none;top=0;left=0;bottom=0;right=0;overflow=hidden;strokeColor=none;" parent="82" vertex="1">
                    <mxGeometry x="43" width="44" height="27" as="geometry">
                        <mxRectangle width="44" height="27" as="alternateBounds"/>
                    </mxGeometry>
                </mxCell>
                <mxCell id="85" value="C" style="shape=partialRectangle;html=1;whiteSpace=wrap;connectable=0;fillColor=none;top=0;left=0;bottom=0;right=0;overflow=hidden;strokeColor=none;" parent="82" vertex="1">
                    <mxGeometry x="87" width="43" height="27" as="geometry">
                        <mxRectangle width="43" height="27" as="alternateBounds"/>
                    </mxGeometry>
                </mxCell>
                <mxCell id="86" value="" style="shape=table;html=1;whiteSpace=wrap;startSize=0;container=1;collapsible=0;childLayout=tableLayout;strokeColor=none;" parent="1" vertex="1">
                    <mxGeometry x="445" y="135" width="87" height="27" as="geometry"/>
                </mxCell>
                <mxCell id="87" value="" style="shape=tableRow;horizontal=0;startSize=0;swimlaneHead=0;swimlaneBody=0;top=0;left=0;bottom=0;right=0;collapsible=0;dropTarget=0;fillColor=none;points=[[0,0.5],[1,0.5]];portConstraint=eastwest;strokeColor=none;" parent="86" vertex="1">
                    <mxGeometry width="87" height="27" as="geometry"/>
                </mxCell>
                <mxCell id="88" value="D" style="shape=partialRectangle;html=1;whiteSpace=wrap;connectable=0;fillColor=none;top=0;left=0;bottom=0;right=0;overflow=hidden;strokeColor=none;" parent="87" vertex="1">
                    <mxGeometry width="43" height="27" as="geometry">
                        <mxRectangle width="43" height="27" as="alternateBounds"/>
                    </mxGeometry>
                </mxCell>
                <mxCell id="89" value="E" style="shape=partialRectangle;html=1;whiteSpace=wrap;connectable=0;fillColor=none;top=0;left=0;bottom=0;right=0;overflow=hidden;strokeColor=none;" parent="87" vertex="1">
                    <mxGeometry x="43" width="44" height="27" as="geometry">
                        <mxRectangle width="44" height="27" as="alternateBounds"/>
                    </mxGeometry>
                </mxCell>
                <mxCell id="99" style="edgeStyle=none;html=1;entryX=1;entryY=0.5;entryDx=0;entryDy=0;entryPerimeter=0;" edge="1" parent="1" source="90" target="95">
                    <mxGeometry relative="1" as="geometry"/>
                </mxCell>
                <mxCell id="90" value="Facade" style="rounded=0;whiteSpace=wrap;html=1;" vertex="1" parent="1">
                    <mxGeometry x="217" y="722" width="120" height="60" as="geometry"/>
                </mxCell>
                <mxCell id="94" value="订单" style="rounded=0;whiteSpace=wrap;html=1;" vertex="1" parent="1">
                    <mxGeometry x="698" y="693" width="120" height="60" as="geometry"/>
                </mxCell>
                <mxCell id="100" style="edgeStyle=none;html=1;entryX=0.005;entryY=0.531;entryDx=0;entryDy=0;entryPerimeter=0;" edge="1" parent="1" source="95" target="98">
                    <mxGeometry relative="1" as="geometry"/>
                </mxCell>
                <mxCell id="95" value="MQ" style="shape=cylinder3;whiteSpace=wrap;html=1;boundedLbl=1;backgroundOutline=1;size=15;rotation=90;" vertex="1" parent="1">
                    <mxGeometry x="441" y="523" width="60" height="185" as="geometry"/>
                </mxCell>
                <mxCell id="97" value="订单" style="rounded=0;whiteSpace=wrap;html=1;" vertex="1" parent="1">
                    <mxGeometry x="698" y="782" width="120" height="60" as="geometry"/>
                </mxCell>
                <mxCell id="105" value="Facade" style="rounded=0;whiteSpace=wrap;html=1;" vertex="1" parent="1">
                    <mxGeometry x="214" y="852" width="120" height="60" as="geometry"/>
                </mxCell>
                <mxCell id="110" value="" style="image;html=1;image=img/lib/clip_art/networking/Router_Icon_128x128.png" vertex="1" parent="1">
                    <mxGeometry x="31" y="546" width="80" height="80" as="geometry"/>
                </mxCell>
                <mxCell id="113" value="限流" style="rounded=0;whiteSpace=wrap;html=1;" vertex="1" parent="1">
                    <mxGeometry x="146" y="706" width="53" height="82" as="geometry"/>
                </mxCell>
                <mxCell id="125" style="edgeStyle=none;html=1;entryX=0;entryY=0.5;entryDx=0;entryDy=0;" edge="1" parent="1" source="120" target="123">
                    <mxGeometry relative="1" as="geometry"/>
                </mxCell>
                <mxCell id="120" value="Client" style="rounded=0;whiteSpace=wrap;html=1;" vertex="1" parent="1">
                    <mxGeometry x="-329" y="807.5" width="120" height="60" as="geometry"/>
                </mxCell>
                <mxCell id="128" style="edgeStyle=none;html=1;" edge="1" parent="1" source="123">
                    <mxGeometry relative="1" as="geometry">
                        <mxPoint x="73" y="823.5" as="targetPoint"/>
                    </mxGeometry>
                </mxCell>
                <mxCell id="123" value="DNS负载均衡" style="rounded=0;whiteSpace=wrap;html=1;" vertex="1" parent="1">
                    <mxGeometry x="-170" y="699" width="53" height="249" as="geometry"/>
                </mxCell>
                <mxCell id="126" value="限流" style="rounded=0;whiteSpace=wrap;html=1;" vertex="1" parent="1">
                    <mxGeometry x="141" y="841" width="53" height="82" as="geometry"/>
                </mxCell>
                <mxCell id="130" value="" style="shape=datastore;whiteSpace=wrap;html=1;" vertex="1" parent="1">
                    <mxGeometry x="1069" y="731" width="60" height="60" as="geometry"/>
                </mxCell>
            </root>
        </mxGraphModel>
    </diagram>
</mxfile>